<mxfile host="app.diagrams.net" modified="2022-05-19T06:12:06.765Z" agent="5.0 (Windows NT 10.0; Win64; x64) AppleWebKit/537.36 (KHTML, like Gecko) Chrome/101.0.4951.67 Safari/537.36" etag="NOTaGVyWiJT3su_n9JAc" version="17.4.6" type="github">
  <diagram name="Page-1" id="aaaa8250-4180-3840-79b5-4cada1eebb92">
    <mxGraphModel dx="4886" dy="3048" grid="1" gridSize="10" guides="1" tooltips="1" connect="1" arrows="1" fold="1" page="1" pageScale="1" pageWidth="850" pageHeight="1100" background="none" math="0" shadow="0">
      <root>
        <mxCell id="0" />
        <mxCell id="1" parent="0" />
        <mxCell id="wbPkBzlgyK-gbSIn6uKV-24" value="" style="verticalLabelPosition=bottom;html=1;verticalAlign=top;strokeWidth=1;align=center;outlineConnect=0;dashed=0;outlineConnect=0;shape=mxgraph.aws3d.spot2;fillColor=#dae8fc;strokeColor=#6c8ebf;aspect=fixed;shadow=0;sketch=0;" vertex="1" parent="1">
          <mxGeometry x="-673.41" y="1114" width="1618.91" height="940" as="geometry" />
        </mxCell>
        <mxCell id="wbPkBzlgyK-gbSIn6uKV-121" value="" style="verticalLabelPosition=bottom;html=1;verticalAlign=top;strokeWidth=1;align=center;outlineConnect=0;dashed=0;outlineConnect=0;shape=mxgraph.aws3d.flatDoubleEdge2;strokeColor=none;fillColor=#F4B934;aspect=fixed;shadow=0;sketch=0;fontSize=38;" vertex="1" parent="1">
          <mxGeometry x="-490" y="1574.42" width="729.58" height="415.58" as="geometry" />
        </mxCell>
        <mxCell id="wbPkBzlgyK-gbSIn6uKV-47" value="" style="group" vertex="1" connectable="0" parent="1">
          <mxGeometry x="-60" y="1351" width="282.8" height="224" as="geometry" />
        </mxCell>
        <mxCell id="wbPkBzlgyK-gbSIn6uKV-43" value="" style="verticalLabelPosition=bottom;html=1;verticalAlign=top;strokeWidth=1;align=center;outlineConnect=0;dashed=0;outlineConnect=0;shape=mxgraph.aws3d.application_server;fillColor=#ECECEC;strokeColor=#5E5E5E;aspect=fixed;shadow=0;sketch=0;" vertex="1" parent="wbPkBzlgyK-gbSIn6uKV-47">
          <mxGeometry x="70" width="123" height="124" as="geometry" />
        </mxCell>
        <mxCell id="wbPkBzlgyK-gbSIn6uKV-44" value="" style="verticalLabelPosition=bottom;html=1;verticalAlign=top;strokeWidth=1;align=center;outlineConnect=0;dashed=0;outlineConnect=0;shape=mxgraph.aws3d.application_server;fillColor=#ECECEC;strokeColor=#5E5E5E;aspect=fixed;shadow=0;sketch=0;" vertex="1" parent="wbPkBzlgyK-gbSIn6uKV-47">
          <mxGeometry y="40" width="123" height="124" as="geometry" />
        </mxCell>
        <mxCell id="wbPkBzlgyK-gbSIn6uKV-45" value="" style="verticalLabelPosition=bottom;html=1;verticalAlign=top;strokeWidth=1;align=center;outlineConnect=0;dashed=0;outlineConnect=0;shape=mxgraph.aws3d.application_server;fillColor=#ECECEC;strokeColor=#5E5E5E;aspect=fixed;shadow=0;sketch=0;" vertex="1" parent="wbPkBzlgyK-gbSIn6uKV-47">
          <mxGeometry x="140" y="40" width="123" height="124" as="geometry" />
        </mxCell>
        <mxCell id="wbPkBzlgyK-gbSIn6uKV-46" value="" style="verticalLabelPosition=bottom;html=1;verticalAlign=top;strokeWidth=1;align=center;outlineConnect=0;dashed=0;outlineConnect=0;shape=mxgraph.aws3d.application_server;fillColor=#ECECEC;strokeColor=#5E5E5E;aspect=fixed;shadow=0;sketch=0;" vertex="1" parent="wbPkBzlgyK-gbSIn6uKV-47">
          <mxGeometry x="70" y="80" width="123" height="124" as="geometry" />
        </mxCell>
        <mxCell id="wbPkBzlgyK-gbSIn6uKV-63" value="" style="outlineConnect=0;dashed=0;verticalLabelPosition=bottom;verticalAlign=top;align=center;html=1;shape=mxgraph.aws3.factory;fillColor=#5294CF;gradientColor=none;shadow=0;sketch=0;" vertex="1" parent="wbPkBzlgyK-gbSIn6uKV-47">
          <mxGeometry x="200" y="40" width="79.5" height="79.5" as="geometry" />
        </mxCell>
        <mxCell id="wbPkBzlgyK-gbSIn6uKV-55" value="" style="verticalLabelPosition=bottom;html=1;verticalAlign=top;strokeWidth=1;align=center;outlineConnect=0;dashed=0;outlineConnect=0;shape=mxgraph.aws3d.dataServer;strokeColor=#5E5E5E;aspect=fixed;shadow=0;sketch=0;" vertex="1" parent="1">
          <mxGeometry x="-403.45" y="1505.5" width="207.71" height="179" as="geometry" />
        </mxCell>
        <mxCell id="wbPkBzlgyK-gbSIn6uKV-57" value="" style="verticalLabelPosition=bottom;html=1;verticalAlign=top;strokeWidth=1;align=center;outlineConnect=0;dashed=0;outlineConnect=0;shape=mxgraph.aws3d.ami;aspect=fixed;fillColor=#E8CA45;strokeColor=#FFF215;shadow=0;sketch=0;" vertex="1" parent="1">
          <mxGeometry x="-342" y="1532.65" width="100.21" height="65.35" as="geometry" />
        </mxCell>
        <mxCell id="wbPkBzlgyK-gbSIn6uKV-61" value="" style="group" vertex="1" connectable="0" parent="1">
          <mxGeometry x="-214.31999999999996" y="1639.5" width="244.87999999999997" height="179" as="geometry" />
        </mxCell>
        <mxCell id="wbPkBzlgyK-gbSIn6uKV-58" value="" style="verticalLabelPosition=bottom;html=1;verticalAlign=top;strokeWidth=1;align=center;outlineConnect=0;dashed=0;outlineConnect=0;shape=mxgraph.aws3d.dataServer;strokeColor=#5E5E5E;aspect=fixed;shadow=0;sketch=0;" vertex="1" parent="wbPkBzlgyK-gbSIn6uKV-61">
          <mxGeometry width="207.71" height="179" as="geometry" />
        </mxCell>
        <mxCell id="wbPkBzlgyK-gbSIn6uKV-60" value="" style="verticalLabelPosition=bottom;html=1;verticalAlign=top;strokeWidth=1;align=center;outlineConnect=0;dashed=0;outlineConnect=0;shape=mxgraph.aws3d.ami2;aspect=fixed;fillColor=#FF9900;strokeColor=#ffffff;shadow=0;sketch=0;" vertex="1" parent="wbPkBzlgyK-gbSIn6uKV-61">
          <mxGeometry x="40.31999999999999" y="21" width="125.06" height="84.5" as="geometry" />
        </mxCell>
        <mxCell id="wbPkBzlgyK-gbSIn6uKV-41" value="" style="outlineConnect=0;dashed=0;verticalLabelPosition=bottom;verticalAlign=top;align=center;html=1;shape=mxgraph.aws3.lightbulb;fillColor=#5294CF;gradientColor=none;shadow=0;sketch=0;" vertex="1" parent="wbPkBzlgyK-gbSIn6uKV-61">
          <mxGeometry x="165.37999999999997" y="30.5" width="79.5" height="79.5" as="geometry" />
        </mxCell>
        <mxCell id="wbPkBzlgyK-gbSIn6uKV-40" value="" style="outlineConnect=0;dashed=0;verticalLabelPosition=bottom;verticalAlign=top;align=center;html=1;shape=mxgraph.aws3.utility;fillColor=#5294CF;gradientColor=none;shadow=0;sketch=0;" vertex="1" parent="1">
          <mxGeometry x="-250" y="1518.75" width="79.5" height="79.5" as="geometry" />
        </mxCell>
        <mxCell id="wbPkBzlgyK-gbSIn6uKV-62" value="" style="group" vertex="1" connectable="0" parent="1">
          <mxGeometry y="1760" width="374.14" height="273.56" as="geometry" />
        </mxCell>
        <mxCell id="wbPkBzlgyK-gbSIn6uKV-54" value="" style="verticalLabelPosition=bottom;html=1;verticalAlign=top;strokeWidth=1;align=center;outlineConnect=0;dashed=0;outlineConnect=0;shape=mxgraph.aws3d.dataServer;strokeColor=#5E5E5E;aspect=fixed;shadow=0;sketch=0;" vertex="1" parent="wbPkBzlgyK-gbSIn6uKV-62">
          <mxGeometry y="13.5" width="207.71" height="179" as="geometry" />
        </mxCell>
        <mxCell id="wbPkBzlgyK-gbSIn6uKV-29" value="" style="verticalLabelPosition=bottom;html=1;verticalAlign=top;strokeWidth=1;align=center;outlineConnect=0;dashed=0;outlineConnect=0;shape=mxgraph.aws3d.application2;fillColor=#86E83A;strokeColor=#B0F373;aspect=fixed;shadow=0;sketch=0;" vertex="1" parent="wbPkBzlgyK-gbSIn6uKV-62">
          <mxGeometry x="34.25999999999999" width="139.2" height="119" as="geometry" />
        </mxCell>
        <mxCell id="wbPkBzlgyK-gbSIn6uKV-42" value="" style="outlineConnect=0;dashed=0;verticalLabelPosition=bottom;verticalAlign=top;align=center;html=1;shape=mxgraph.aws3.thermostat;fillColor=#5294CF;gradientColor=none;shadow=0;sketch=0;" vertex="1" parent="wbPkBzlgyK-gbSIn6uKV-62">
          <mxGeometry x="160" y="40" width="79.5" height="79.5" as="geometry" />
        </mxCell>
        <mxCell id="wbPkBzlgyK-gbSIn6uKV-125" value="" style="verticalLabelPosition=bottom;html=1;verticalAlign=top;strokeWidth=1;align=center;outlineConnect=0;dashed=0;outlineConnect=0;shape=mxgraph.aws3d.dashedArrowlessEdge2;strokeColor=#2D6195;aspect=fixed;shadow=0;sketch=0;fontSize=38;" vertex="1" parent="wbPkBzlgyK-gbSIn6uKV-62">
          <mxGeometry x="176.11" y="170" width="31.6" height="18" as="geometry" />
        </mxCell>
        <mxCell id="wbPkBzlgyK-gbSIn6uKV-127" value="" style="verticalLabelPosition=bottom;html=1;verticalAlign=top;strokeWidth=1;align=center;outlineConnect=0;dashed=0;outlineConnect=0;shape=mxgraph.aws3d.dashedArrowlessEdge2;strokeColor=#2D6195;aspect=fixed;shadow=0;sketch=0;fontSize=38;rotation=-65;" vertex="1" parent="wbPkBzlgyK-gbSIn6uKV-62">
          <mxGeometry x="216.14" y="81.94" width="158" height="90" as="geometry" />
        </mxCell>
        <mxCell id="wbPkBzlgyK-gbSIn6uKV-76" value="" style="group" vertex="1" connectable="0" parent="1">
          <mxGeometry x="228" y="1530" width="260" height="207.5" as="geometry" />
        </mxCell>
        <mxCell id="1a8abee3a6cfdf20-19" value="" style="verticalLabelPosition=bottom;html=1;verticalAlign=top;strokeWidth=1;dashed=0;shape=mxgraph.aws3d.elasticBeanstalk;fillColor=#ECECEC;strokeColor=#5E5E5E;aspect=fixed;rounded=1;shadow=0;comic=0;fontSize=12" parent="wbPkBzlgyK-gbSIn6uKV-76" vertex="1">
          <mxGeometry width="246.35" height="189.5" as="geometry" />
        </mxCell>
        <mxCell id="wbPkBzlgyK-gbSIn6uKV-72" value="" style="outlineConnect=0;dashed=0;verticalLabelPosition=bottom;verticalAlign=top;align=center;html=1;shape=mxgraph.aws3.hardware_board;fillColor=#5294CF;gradientColor=none;shadow=0;sketch=0;" vertex="1" parent="wbPkBzlgyK-gbSIn6uKV-76">
          <mxGeometry x="176" y="20" width="84" height="100.5" as="geometry" />
        </mxCell>
        <mxCell id="wbPkBzlgyK-gbSIn6uKV-103" value="" style="group" vertex="1" connectable="0" parent="1">
          <mxGeometry x="210" y="380" width="1508.23" height="740" as="geometry" />
        </mxCell>
        <mxCell id="wbPkBzlgyK-gbSIn6uKV-86" value="" style="verticalLabelPosition=bottom;html=1;verticalAlign=top;strokeWidth=1;align=center;outlineConnect=0;outlineConnect=0;shape=mxgraph.aws3d.dashedArrowlessEdge2;strokeColor=#2D6195;aspect=fixed;shadow=0;sketch=0;" vertex="1" parent="wbPkBzlgyK-gbSIn6uKV-103">
          <mxGeometry y="270" width="570" height="324.68" as="geometry" />
        </mxCell>
        <mxCell id="wbPkBzlgyK-gbSIn6uKV-88" value="" style="verticalLabelPosition=bottom;html=1;verticalAlign=top;strokeWidth=1;align=center;outlineConnect=0;dashed=0;outlineConnect=0;shape=mxgraph.aws3d.dashedArrowlessEdge2;strokeColor=#2D6195;aspect=fixed;shadow=0;sketch=0;" vertex="1" parent="wbPkBzlgyK-gbSIn6uKV-103">
          <mxGeometry x="472.44" width="579.34" height="330" as="geometry" />
        </mxCell>
        <mxCell id="wbPkBzlgyK-gbSIn6uKV-94" value="" style="verticalLabelPosition=bottom;html=1;verticalAlign=top;strokeWidth=1;align=center;outlineConnect=0;dashed=0;outlineConnect=0;shape=mxgraph.aws3d.dashedArrowlessEdge2;strokeColor=#2D6195;aspect=fixed;shadow=0;sketch=0;direction=south;" vertex="1" parent="wbPkBzlgyK-gbSIn6uKV-103">
          <mxGeometry y="0.8899999999999864" width="472.44" height="269.11" as="geometry" />
        </mxCell>
        <mxCell id="wbPkBzlgyK-gbSIn6uKV-95" value="" style="verticalLabelPosition=bottom;html=1;verticalAlign=top;strokeWidth=1;align=center;outlineConnect=0;dashed=0;outlineConnect=0;shape=mxgraph.aws3d.dashedArrowlessEdge2;strokeColor=#2D6195;aspect=fixed;shadow=0;sketch=0;direction=south;" vertex="1" parent="wbPkBzlgyK-gbSIn6uKV-103">
          <mxGeometry x="570" y="330" width="472.44" height="269.11" as="geometry" />
        </mxCell>
        <mxCell id="wbPkBzlgyK-gbSIn6uKV-109" value="" style="verticalLabelPosition=bottom;html=1;verticalAlign=top;strokeWidth=1;align=center;outlineConnect=0;dashed=0;outlineConnect=0;shape=mxgraph.aws3d.client;aspect=fixed;strokeColor=none;fillColor=#777777;shadow=0;sketch=0;" vertex="1" parent="wbPkBzlgyK-gbSIn6uKV-103">
          <mxGeometry x="240" y="340" width="60" height="104" as="geometry" />
        </mxCell>
        <mxCell id="wbPkBzlgyK-gbSIn6uKV-203" value="" style="verticalLabelPosition=bottom;html=1;verticalAlign=top;strokeWidth=1;align=center;outlineConnect=0;dashed=0;outlineConnect=0;shape=mxgraph.aws3d.dashedArrowlessEdge2;strokeColor=#2D6195;aspect=fixed;shadow=0;sketch=0;fontSize=38;rotation=-60;" vertex="1" parent="wbPkBzlgyK-gbSIn6uKV-103">
          <mxGeometry x="828.13" y="131.49" width="120" height="68.35" as="geometry" />
        </mxCell>
        <mxCell id="wbPkBzlgyK-gbSIn6uKV-207" value="" style="verticalLabelPosition=bottom;html=1;verticalAlign=top;strokeWidth=1;align=center;outlineConnect=0;dashed=0;outlineConnect=0;shape=mxgraph.aws3d.flatEdge2;strokeColor=none;fillColor=#F4B934;aspect=fixed;shadow=0;sketch=0;fontSize=38;" vertex="1" parent="wbPkBzlgyK-gbSIn6uKV-103">
          <mxGeometry x="1210" y="200" width="228.23" height="130" as="geometry" />
        </mxCell>
        <mxCell id="wbPkBzlgyK-gbSIn6uKV-104" value="" style="group" vertex="1" connectable="0" parent="1">
          <mxGeometry x="970" y="860" width="1146.93" height="630.1100000000001" as="geometry" />
        </mxCell>
        <mxCell id="wbPkBzlgyK-gbSIn6uKV-87" value="" style="verticalLabelPosition=bottom;html=1;verticalAlign=top;strokeWidth=1;align=center;outlineConnect=0;dashed=0;outlineConnect=0;shape=mxgraph.aws3d.dashedArrowlessEdge2;strokeColor=#2D6195;aspect=fixed;shadow=0;sketch=0;" vertex="1" parent="wbPkBzlgyK-gbSIn6uKV-104">
          <mxGeometry x="10" y="269.5" width="632.88" height="360.5" as="geometry" />
        </mxCell>
        <mxCell id="wbPkBzlgyK-gbSIn6uKV-89" value="" style="verticalLabelPosition=bottom;html=1;verticalAlign=top;strokeWidth=1;align=center;outlineConnect=0;dashed=0;outlineConnect=0;shape=mxgraph.aws3d.dashedArrowlessEdge2;strokeColor=#2D6195;aspect=fixed;shadow=0;sketch=0;" vertex="1" parent="wbPkBzlgyK-gbSIn6uKV-104">
          <mxGeometry x="480" width="632" height="360" as="geometry" />
        </mxCell>
        <mxCell id="wbPkBzlgyK-gbSIn6uKV-97" value="" style="verticalLabelPosition=bottom;html=1;verticalAlign=top;strokeWidth=1;align=center;outlineConnect=0;dashed=0;outlineConnect=0;shape=mxgraph.aws3d.dashedArrowlessEdge2;strokeColor=#2D6195;aspect=fixed;shadow=0;sketch=0;direction=south;" vertex="1" parent="wbPkBzlgyK-gbSIn6uKV-104">
          <mxGeometry width="472.44" height="269.11" as="geometry" />
        </mxCell>
        <mxCell id="wbPkBzlgyK-gbSIn6uKV-98" value="" style="verticalLabelPosition=bottom;html=1;verticalAlign=top;strokeWidth=1;align=center;outlineConnect=0;dashed=0;outlineConnect=0;shape=mxgraph.aws3d.dashedArrowlessEdge2;strokeColor=#2D6195;aspect=fixed;shadow=0;sketch=0;direction=south;" vertex="1" parent="wbPkBzlgyK-gbSIn6uKV-104">
          <mxGeometry x="647.56" y="361" width="472.44" height="269.11" as="geometry" />
        </mxCell>
        <mxCell id="wbPkBzlgyK-gbSIn6uKV-117" value="" style="verticalLabelPosition=bottom;html=1;verticalAlign=top;strokeWidth=1;align=center;outlineConnect=0;dashed=0;outlineConnect=0;shape=mxgraph.aws3d.client;aspect=fixed;strokeColor=none;fillColor=#777777;shadow=0;sketch=0;" vertex="1" parent="wbPkBzlgyK-gbSIn6uKV-104">
          <mxGeometry x="290" y="361" width="60" height="104" as="geometry" />
        </mxCell>
        <mxCell id="wbPkBzlgyK-gbSIn6uKV-177" value="" style="verticalLabelPosition=bottom;html=1;verticalAlign=top;strokeWidth=1;align=center;outlineConnect=0;dashed=0;outlineConnect=0;shape=mxgraph.aws3d.dashedEdge2;strokeColor=#2D6195;aspect=fixed;shadow=0;sketch=0;fontSize=38;flipH=1;direction=west;" vertex="1" parent="wbPkBzlgyK-gbSIn6uKV-104">
          <mxGeometry x="140" y="40" width="70.22" height="40" as="geometry" />
        </mxCell>
        <mxCell id="wbPkBzlgyK-gbSIn6uKV-205" value="" style="verticalLabelPosition=bottom;html=1;verticalAlign=top;strokeWidth=1;align=center;outlineConnect=0;dashed=0;outlineConnect=0;shape=mxgraph.aws3d.dashedArrowlessEdge2;strokeColor=#2D6195;aspect=fixed;shadow=0;sketch=0;fontSize=38;flipV=1;" vertex="1" parent="wbPkBzlgyK-gbSIn6uKV-104">
          <mxGeometry x="680" y="10" width="136.93" height="78" as="geometry" />
        </mxCell>
        <mxCell id="wbPkBzlgyK-gbSIn6uKV-108" value="" style="verticalLabelPosition=bottom;html=1;verticalAlign=top;strokeWidth=1;align=center;outlineConnect=0;dashed=0;outlineConnect=0;shape=mxgraph.aws3d.flatDoubleEdge2;strokeColor=none;fillColor=#F4B934;aspect=fixed;shadow=0;sketch=0;" vertex="1" parent="1">
          <mxGeometry x="260" y="1037.34" width="566.45" height="322.66" as="geometry" />
        </mxCell>
        <mxCell id="wbPkBzlgyK-gbSIn6uKV-107" value="" style="verticalLabelPosition=bottom;html=1;verticalAlign=top;strokeWidth=1;align=center;outlineConnect=0;dashed=0;outlineConnect=0;shape=mxgraph.aws3d.rds;fillColor=#ECECEC;strokeColor=#5E5E5E;aspect=fixed;shadow=0;sketch=0;" vertex="1" parent="1">
          <mxGeometry x="341.44" y="979.11" width="201.61" height="218" as="geometry" />
        </mxCell>
        <mxCell id="wbPkBzlgyK-gbSIn6uKV-124" value="" style="verticalLabelPosition=bottom;html=1;verticalAlign=top;strokeWidth=1;align=center;outlineConnect=0;dashed=0;outlineConnect=0;shape=mxgraph.aws3d.dashedArrowlessEdge2;strokeColor=#2D6195;aspect=fixed;shadow=0;sketch=0;fontSize=38;" vertex="1" parent="1">
          <mxGeometry x="-320" y="1442.22" width="680.79" height="387.78" as="geometry" />
        </mxCell>
        <mxCell id="wbPkBzlgyK-gbSIn6uKV-129" value="" style="group" vertex="1" connectable="0" parent="1">
          <mxGeometry x="210.00000000000003" y="1692" width="63.19999999999996" height="36" as="geometry" />
        </mxCell>
        <mxCell id="wbPkBzlgyK-gbSIn6uKV-126" value="" style="verticalLabelPosition=bottom;html=1;verticalAlign=top;strokeWidth=1;align=center;outlineConnect=0;dashed=0;outlineConnect=0;shape=mxgraph.aws3d.dashedEdge2;strokeColor=#2D6195;aspect=fixed;shadow=0;sketch=0;fontSize=38;" vertex="1" parent="wbPkBzlgyK-gbSIn6uKV-129">
          <mxGeometry x="31.599999999999966" width="31.6" height="18" as="geometry" />
        </mxCell>
        <mxCell id="wbPkBzlgyK-gbSIn6uKV-128" value="" style="verticalLabelPosition=bottom;html=1;verticalAlign=top;strokeWidth=1;align=center;outlineConnect=0;dashed=0;outlineConnect=0;shape=mxgraph.aws3d.dashedEdge2;strokeColor=#2D6195;aspect=fixed;shadow=0;sketch=0;fontSize=38;direction=west;" vertex="1" parent="wbPkBzlgyK-gbSIn6uKV-129">
          <mxGeometry y="18" width="31.6" height="18" as="geometry" />
        </mxCell>
        <mxCell id="wbPkBzlgyK-gbSIn6uKV-130" value="" style="group" vertex="1" connectable="0" parent="1">
          <mxGeometry x="-79.99999999999997" y="1530" width="63.19999999999996" height="36" as="geometry" />
        </mxCell>
        <mxCell id="wbPkBzlgyK-gbSIn6uKV-131" value="" style="verticalLabelPosition=bottom;html=1;verticalAlign=top;strokeWidth=1;align=center;outlineConnect=0;dashed=0;outlineConnect=0;shape=mxgraph.aws3d.dashedEdge2;strokeColor=#2D6195;aspect=fixed;shadow=0;sketch=0;fontSize=38;" vertex="1" parent="wbPkBzlgyK-gbSIn6uKV-130">
          <mxGeometry x="31.599999999999966" width="31.6" height="18" as="geometry" />
        </mxCell>
        <mxCell id="wbPkBzlgyK-gbSIn6uKV-132" value="" style="verticalLabelPosition=bottom;html=1;verticalAlign=top;strokeWidth=1;align=center;outlineConnect=0;dashed=0;outlineConnect=0;shape=mxgraph.aws3d.dashedEdge2;strokeColor=#2D6195;aspect=fixed;shadow=0;sketch=0;fontSize=38;direction=west;" vertex="1" parent="wbPkBzlgyK-gbSIn6uKV-130">
          <mxGeometry y="18" width="31.6" height="18" as="geometry" />
        </mxCell>
        <mxCell id="wbPkBzlgyK-gbSIn6uKV-143" value="" style="verticalLabelPosition=bottom;html=1;verticalAlign=top;strokeWidth=1;align=center;outlineConnect=0;dashed=0;outlineConnect=0;shape=mxgraph.aws3d.dashedArrowlessEdge2;strokeColor=#2D6195;aspect=fixed;shadow=0;sketch=0;fontSize=38;rotation=-65;" vertex="1" parent="1">
          <mxGeometry x="-448.99" y="1449.08" width="125.08" height="71.25" as="geometry" />
        </mxCell>
        <mxCell id="wbPkBzlgyK-gbSIn6uKV-157" value="" style="verticalLabelPosition=bottom;html=1;verticalAlign=top;strokeWidth=1;align=center;outlineConnect=0;dashed=0;outlineConnect=0;shape=mxgraph.aws3d.dashedArrowlessEdge2;strokeColor=#2D6195;aspect=fixed;shadow=0;sketch=0;fontSize=38;" vertex="1" parent="1">
          <mxGeometry x="-443" y="1532.65" width="36.87" height="21" as="geometry" />
        </mxCell>
        <mxCell id="wbPkBzlgyK-gbSIn6uKV-160" value="" style="verticalLabelPosition=bottom;html=1;verticalAlign=top;strokeWidth=1;align=center;outlineConnect=0;dashed=0;outlineConnect=0;shape=mxgraph.aws3d.flatDoubleEdge2;strokeColor=none;fillColor=#F4B934;aspect=fixed;shadow=0;sketch=0;fontSize=38;direction=west;flipV=1;rotation=2;" vertex="1" parent="1">
          <mxGeometry x="299.41" y="1259.91" width="370.31" height="210.93" as="geometry" />
        </mxCell>
        <mxCell id="wbPkBzlgyK-gbSIn6uKV-158" value="" style="verticalLabelPosition=bottom;html=1;verticalAlign=top;strokeWidth=1;align=center;outlineConnect=0;dashed=0;outlineConnect=0;shape=mxgraph.aws3d.dashedArrowlessEdge2;strokeColor=#2D6195;aspect=fixed;shadow=0;sketch=0;fontSize=38;" vertex="1" parent="1">
          <mxGeometry x="-40" y="1790" width="31.6" height="18" as="geometry" />
        </mxCell>
        <mxCell id="wbPkBzlgyK-gbSIn6uKV-159" value="" style="verticalLabelPosition=bottom;html=1;verticalAlign=top;strokeWidth=1;align=center;outlineConnect=0;dashed=0;outlineConnect=0;shape=mxgraph.aws3d.dashedArrowlessEdge2;strokeColor=#2D6195;aspect=fixed;shadow=0;sketch=0;fontSize=38;" vertex="1" parent="1">
          <mxGeometry x="-250" y="1666.5" width="31.6" height="18" as="geometry" />
        </mxCell>
        <mxCell id="wbPkBzlgyK-gbSIn6uKV-77" value="" style="verticalLabelPosition=bottom;html=1;verticalAlign=top;strokeWidth=1;align=center;outlineConnect=0;dashed=0;outlineConnect=0;shape=mxgraph.aws3d.cloudfront;fillColor=#ECECEC;strokeColor=#5E5E5E;aspect=fixed;shadow=0;sketch=0;" vertex="1" parent="1">
          <mxGeometry x="350" y="1266.1999999999998" width="103.8" height="169.79999999999998" as="geometry" />
        </mxCell>
        <mxCell id="wbPkBzlgyK-gbSIn6uKV-106" value="" style="verticalLabelPosition=bottom;html=1;verticalAlign=top;strokeWidth=1;align=center;outlineConnect=0;dashed=0;outlineConnect=0;shape=mxgraph.aws3d.rdsMaster;fillColor=#ECECEC;strokeColor=#5E5E5E;aspect=fixed;shadow=0;sketch=0;" vertex="1" parent="1">
          <mxGeometry x="580" y="1114" width="206.23" height="223" as="geometry" />
        </mxCell>
        <mxCell id="wbPkBzlgyK-gbSIn6uKV-85" value="" style="outlineConnect=0;dashed=0;verticalLabelPosition=bottom;verticalAlign=top;align=center;html=1;shape=mxgraph.aws3.sensor;fillColor=#5294CF;gradientColor=none;shadow=0;sketch=0;" vertex="1" parent="1">
          <mxGeometry x="404" y="1261" width="76.5" height="90" as="geometry" />
        </mxCell>
        <mxCell id="wbPkBzlgyK-gbSIn6uKV-176" value="" style="verticalLabelPosition=bottom;html=1;verticalAlign=top;strokeWidth=1;align=center;outlineConnect=0;dashed=0;outlineConnect=0;shape=mxgraph.aws3d.dashedEdge2;strokeColor=#2D6195;aspect=fixed;shadow=0;sketch=0;fontSize=38;flipH=1;" vertex="1" parent="1">
          <mxGeometry x="1040" y="860" width="70.22" height="40" as="geometry" />
        </mxCell>
        <mxCell id="wbPkBzlgyK-gbSIn6uKV-185" value="" style="verticalLabelPosition=bottom;html=1;verticalAlign=top;strokeWidth=1;align=center;outlineConnect=0;dashed=0;outlineConnect=0;shape=mxgraph.aws3d.end_user;strokeColor=#6c8ebf;fillColor=#dae8fc;aspect=fixed;shadow=0;sketch=0;fontSize=38;" vertex="1" parent="1">
          <mxGeometry x="1474.85" y="110" width="122.2" height="250.54" as="geometry" />
        </mxCell>
        <mxCell id="wbPkBzlgyK-gbSIn6uKV-196" value="" style="verticalLabelPosition=bottom;html=1;verticalAlign=top;strokeWidth=1;align=center;outlineConnect=0;dashed=0;outlineConnect=0;shape=mxgraph.aws3d.flatDoubleEdge2;strokeColor=#6c8ebf;fillColor=#dae8fc;aspect=fixed;shadow=0;sketch=0;fontSize=38;" vertex="1" parent="1">
          <mxGeometry x="1039" y="176.34000000000003" width="1263.99" height="720" as="geometry" />
        </mxCell>
        <mxCell id="wbPkBzlgyK-gbSIn6uKV-186" value="" style="verticalLabelPosition=bottom;html=1;verticalAlign=top;strokeWidth=1;align=center;outlineConnect=0;dashed=0;outlineConnect=0;shape=mxgraph.aws3d.end_user;strokeColor=#b85450;fillColor=#f8cecc;aspect=fixed;shadow=0;sketch=0;fontSize=38;" vertex="1" parent="1">
          <mxGeometry x="1980" y="411.07" width="122.2" height="250.54" as="geometry" />
        </mxCell>
        <mxCell id="wbPkBzlgyK-gbSIn6uKV-187" value="" style="image;html=1;image=img/lib/clip_art/finance/Stock_Down_128x128.png;shadow=0;sketch=0;fontSize=38;" vertex="1" parent="1">
          <mxGeometry x="1429" y="351" width="158" height="138" as="geometry" />
        </mxCell>
        <mxCell id="wbPkBzlgyK-gbSIn6uKV-189" value="" style="image;html=1;image=img/lib/clip_art/finance/Pie_Chart_128x128.png;shadow=0;sketch=0;fontSize=38;" vertex="1" parent="1">
          <mxGeometry x="1649" y="469" width="130" height="120" as="geometry" />
        </mxCell>
        <mxCell id="wbPkBzlgyK-gbSIn6uKV-190" value="" style="image;html=1;image=img/lib/clip_art/finance/Stock_Up_128x128.png;shadow=0;sketch=0;fontSize=38;" vertex="1" parent="1">
          <mxGeometry x="1149" y="209" width="190" height="120" as="geometry" />
        </mxCell>
        <mxCell id="wbPkBzlgyK-gbSIn6uKV-194" value="" style="image;html=1;image=img/lib/clip_art/general/Battery_allstates_128x128.png;shadow=0;sketch=0;fontSize=38;" vertex="1" parent="1">
          <mxGeometry x="1759" y="509" width="270" height="190" as="geometry" />
        </mxCell>
        <mxCell id="wbPkBzlgyK-gbSIn6uKV-195" value="" style="image;html=1;image=img/lib/clip_art/finance/Coins_128x128.png;shadow=0;sketch=0;fontSize=38;" vertex="1" parent="1">
          <mxGeometry x="2039" y="687.2800000000001" width="200" height="150.83" as="geometry" />
        </mxCell>
        <mxCell id="wbPkBzlgyK-gbSIn6uKV-200" value="" style="verticalLabelPosition=bottom;html=1;verticalAlign=top;strokeWidth=1;align=center;outlineConnect=0;dashed=0;outlineConnect=0;shape=mxgraph.aws3d.lambda;fillColor=#ECECEC;strokeColor=#5E5E5E;aspect=fixed;shadow=0;sketch=0;fontSize=38;" vertex="1" parent="1">
          <mxGeometry x="1360" y="600" width="135.69" height="161.5" as="geometry" />
        </mxCell>
        <mxCell id="wbPkBzlgyK-gbSIn6uKV-204" value="" style="verticalLabelPosition=bottom;html=1;verticalAlign=top;strokeWidth=1;align=center;outlineConnect=0;dashed=0;outlineConnect=0;shape=mxgraph.aws3d.dashedEdge2;strokeColor=#2D6195;aspect=fixed;shadow=0;sketch=0;fontSize=38;flipV=1;" vertex="1" parent="1">
          <mxGeometry x="1155.35" y="520" width="177.31" height="101" as="geometry" />
        </mxCell>
        <mxCell id="wbPkBzlgyK-gbSIn6uKV-206" value="" style="verticalLabelPosition=bottom;html=1;verticalAlign=top;strokeWidth=1;align=center;outlineConnect=0;dashed=0;outlineConnect=0;shape=mxgraph.aws3d.dashedEdge2;strokeColor=#2D6195;aspect=fixed;shadow=0;sketch=0;fontSize=38;flipV=1;direction=west;" vertex="1" parent="1">
          <mxGeometry x="1500" y="710" width="280.88" height="160" as="geometry" />
        </mxCell>
      </root>
    </mxGraphModel>
  </diagram>
</mxfile>
